<svg xmlns="http://www.w3.org/2000/svg" width="1280" height="1330" viewBox="0 0 1280 1330" version="1.1">
	<path d="M 432 132.080 C 418.414 133.851, 401.537 140.535, 388.500 149.310 C 380.800 154.492, 368.485 166.810, 363.314 174.500 C 358.218 182.079, 163.498 520.038, 158.775 529.500 C 151.242 544.593, 148.512 556.981, 148.637 575.500 C 148.742 591.130, 151.118 602.733, 156.728 615.011 C 161.929 626.395, 359.978 969.198, 365.739 976.789 C 379.343 994.712, 398.729 1007.351, 423 1014.120 L 431.500 1016.491 637 1016.801 C 787.912 1017.028, 845.024 1016.803, 852 1015.955 C 880.394 1012.504, 907.022 996.378, 922.929 973 C 928.418 964.933, 1124.604 624.041, 1128.599 615.628 C 1130.466 611.698, 1133.184 603.987, 1134.640 598.491 C 1136.912 589.917, 1137.291 586.444, 1137.314 574 C 1137.343 557.898, 1136.019 550.171, 1130.999 537.153 C 1128.111 529.664, 931.934 188.156, 922.759 174.646 C 909.947 155.779, 888.179 140.937, 862.974 133.884 L 854.500 131.513 646.500 131.373 C 532.100 131.296, 435.575 131.614, 432 132.080 M 409.243 352.045 C 396.624 353.730, 389 360.411, 389 369.784 C 389 377.436, 392.811 382.019, 403.277 386.953 C 408.507 389.418, 411.828 393.248, 414.311 399.675 C 415.198 401.971, 438.006 484.546, 464.995 583.175 C 491.984 681.804, 514.739 764.862, 515.561 767.750 L 517.056 773 550.283 773 L 583.511 773 602.171 698.250 L 620.832 623.500 592.371 518 C 576.717 459.975, 563.466 410.188, 562.925 407.361 C 561.703 400.988, 562.962 394.747, 566.165 391.290 C 567.449 389.904, 571.714 386.591, 575.642 383.927 C 584.271 378.076, 587.001 374.098, 586.996 367.382 C 586.991 360.784, 584.216 356.450, 578.223 353.682 C 573.504 351.502, 573.437 351.500, 494.500 351.354 C 451.050 351.274, 412.684 351.585, 409.243 352.045 M 632.167 426.250 L 613.859 501.500 649.765 637 L 685.672 772.500 719.208 772.763 L 752.744 773.026 770.338 702.653 L 787.933 632.280 750.966 491.912 C 730.635 414.710, 714 351.422, 714 351.272 C 714 351.123, 699.707 351, 682.238 351 L 650.475 351 632.167 426.250 M 786.776 351.999 C 777.583 353.610, 773.225 359.428, 774.269 368.695 C 774.924 374.506, 778.001 377.686, 789.565 384.503 C 799.861 390.573, 804.923 395.613, 807.499 402.358 C 810.681 410.690, 809.370 418.681, 796.118 471.709 L 784.072 519.918 791.786 550.454 C 796.029 567.249, 799.751 580.993, 800.058 580.995 C 800.365 580.998, 801.310 578.188, 802.158 574.750 C 812.141 534.263, 839.732 429.051, 841.986 422.876 C 846.197 411.336, 851.277 402.804, 858.484 395.164 C 863.506 389.840, 867.058 387.283, 876.039 382.524 C 888.686 375.823, 890.993 373.274, 890.993 366 C 890.993 360.213, 888.064 355.381, 883.228 353.191 C 879.930 351.696, 874.431 351.483, 835.500 351.336 C 811.300 351.245, 789.374 351.543, 786.776 351.999" stroke="none" fill="black" fill-rule="evenodd"/>
</svg>